Coordinates
version=1
nRows=34
nColumns=34
inDegrees=no

Units are S.I. units (second, meters, Newtons, ...)
If the header above contains a line with 'inDegrees', this indicates whether rotational values are in degrees (yes) or radians (no).

endheader
time	pelvis_tilt	pelvis_list	pelvis_rotation	pelvis_tx	pelvis_ty	pelvis_tz	hip_flexion_r	hip_adduction_r	hip_rotation_r	knee_angle_r	ankle_angle_r	subtalar_angle_r	mtp_angle_r	hip_flexion_l	hip_adduction_l	hip_rotation_l	knee_angle_l	ankle_angle_l	subtalar_angle_l	mtp_angle_l	lumbar_extension	lumbar_bending	lumbar_rotation	arm_flex_r	arm_add_r	arm_rot_r	elbow_flex_r	pro_sup_r	arm_flex_l	arm_add_l	arm_rot_l	elbow_flex_l	pro_sup_l
1	-0.10606	0.0317909	0.0462381	-0.408073	1.05227	-0.596979	0.669855	-0.172415	-0.220444	0.600833	-0.444432	-0.05267	-0.0159652	0.673631	-0.153155	-0.362652	0.577514	-0.445911	0.17732	0.0012831	-0.39714	-0.0926591	-0.0455568	-0.961518	0.0440254	-0.654483	1.84891	1.99246	-0.710536	-0.0413594	-0.661487	1.9153	1.81952
1.01	-0.0977553	0.0314817	0.0505369	-0.397785	1.02391	-0.598544	0.712667	-0.180334	-0.197813	0.735936	-0.263158	-0.0660046	-0.0159534	0.719115	-0.14969	-0.32043	0.707568	-0.27254	0.142123	0.0012764	-0.409289	-0.0889894	-0.0593393	-0.880897	0.0237174	-0.601305	1.74515	1.89471	-0.674836	-0.0264823	-0.660767	1.85568	1.80263
1.02	-0.091758	0.0312389	0.0530673	-0.3884	0.995237	-0.599843	0.756358	-0.186028	-0.176474	0.863081	-0.100328	-0.0787051	-0.0159415	0.765289	-0.146309	-0.282288	0.831673	-0.114322	0.110811	0.00126971	-0.420211	-0.0861589	-0.0699543	-0.802521	0.00288267	-0.553507	1.65035	1.82165	-0.634617	-0.0190781	-0.655285	1.79989	1.78413
1.03	-0.0880533	0.0310611	0.0538347	-0.379984	0.966725	-0.600884	0.800939	-0.18949	-0.15637	0.982219	0.0437236	-0.0908339	-0.0159297	0.812155	-0.143038	-0.248151	0.949704	0.0282081	0.083341	0.00126303	-0.429982	-0.0841697	-0.0773499	-0.726246	-0.0184523	-0.510941	1.56443	1.77228	-0.589881	-0.0190818	-0.645041	1.74799	1.76436
1.04	-0.0865314	0.0309144	0.0528559	-0.372331	0.938433	-0.601693	0.846412	-0.19074	-0.137345	1.09331	0.168338	-0.102538	-0.0159178	0.85968	-0.139914	-0.217811	1.0614	0.153891	0.0595793	0.00125638	-0.438837	-0.0830382	-0.0814377	-0.651779	-0.0401735	-0.473308	1.48729	1.74396	-0.540677	-0.0262607	-0.630074	1.70019	1.74416
1.05	-0.0870022	0.0308847	0.050217	-0.365529	0.910606	-0.602331	0.892663	-0.189825	-0.119161	1.19645	0.272942	-0.114016	-0.015906	0.907676	-0.137003	-0.190911	1.16644	0.261458	0.0392836	0.00124974	-0.44725	-0.0827361	-0.0821423	-0.578784	-0.0620583	-0.440239	1.419	1.73253	-0.487159	-0.0401262	-0.610511	1.65685	1.72508
1.06	-0.0889528	0.0310606	0.04608	-0.359528	0.883863	-0.602832	0.9394	-0.186859	-0.101559	1.29187	0.357596	-0.125455	-0.0158941	0.955725	-0.134328	-0.167015	1.26456	0.3503	0.0221086	0.0012431	-0.455811	-0.0832139	-0.0795094	-0.506977	-0.083824	-0.411339	1.3598	1.73275	-0.429649	-0.0598987	-0.586605	1.61846	1.70918
1.07	-0.0918313	0.0314253	0.0406824	-0.353941	0.859131	-0.603243	0.986055	-0.182062	-0.0843444	1.37993	0.423423	-0.136945	-0.0158822	1.00311	-0.131836	-0.145691	1.35554	0.421066	0.00762837	0.00123647	-0.465149	-0.0844098	-0.0737932	-0.436156	-0.105225	-0.386163	1.30996	1.73909	-0.368662	-0.0845357	-0.558747	1.58543	1.69848
1.08	-0.0951524	0.0319721	0.0343331	-0.348604	0.836534	-0.603584	1.03187	-0.175736	-0.0674736	1.461	0.472758	-0.148367	-0.0158703	1.04895	-0.12943	-0.126578	1.43927	0.475804	-0.00462088	0.00122983	-0.475682	-0.0861718	-0.0654903	-0.366149	-0.126134	-0.364157	1.26954	1.74675	-0.304889	-0.112813	-0.527447	1.55797	1.69424
1.09	-0.0986146	0.0326489	0.0273821	-0.343772	0.815502	-0.603887	1.07605	-0.168277	-0.051077	1.53536	0.508941	-0.159311	-0.0158584	1.09247	-0.127002	-0.10944	1.5157	0.51762	-0.0150937	0.00122321	-0.487424	-0.0882784	-0.0553188	-0.296744	-0.146556	-0.344612	1.23817	1.75245	-0.239152	-0.143434	-0.493317	1.53596	1.69655
1.1	-0.1023	0.033371	0.0201803	-0.339569	0.795573	-0.604192	1.11794	-0.160143	-0.0354132	1.60321	0.535799	-0.169102	-0.0158465	1.13314	-0.124478	-0.0941202	1.58494	0.55001	-0.0242101	0.00121659	-0.500011	-0.0904457	-0.0441304	-0.227673	-0.166586	-0.326672	1.21498	1.75481	-0.172353	-0.175134	-0.457065	1.51888	1.70434
1.11	-0.106324	0.0340003	0.0130457	-0.33585	0.776579	-0.604498	1.15708	-0.151826	-0.0207982	1.66476	0.557012	-0.176937	-0.0158346	1.17082	-0.12183	-0.0804781	1.64729	0.576165	-0.0323477	0.00120999	-0.512735	-0.0923617	-0.0327916	-0.158655	-0.18632	-0.309425	1.19868	1.75418	-0.10544	-0.206751	-0.419475	1.5059	1.71564
1.12	-0.110842	0.034362	0.00623455	-0.332447	0.758547	-0.604792	1.19327	-0.143815	-0.00753777	1.72029	0.575541	-0.182076	-0.0158227	1.20572	-0.119077	-0.0683084	1.70332	0.598472	-0.039836	0.00120339	-0.524813	-0.0937144	-0.0220588	-0.0895103	-0.20577	-0.292046	1.18774	1.75219	-0.0393885	-0.237267	-0.381403	1.49608	1.72799
1.13	-0.115932	0.0342928	-6.70121e-05	-0.329218	0.741561	-0.605097	1.22654	-0.136562	0.00411902	1.77027	0.5933	-0.184021	-0.0158108	1.2382	-0.116266	-0.0573327	1.7538	0.618358	-0.0469541	0.00119681	-0.535604	-0.0942252	-0.0124901	-0.0202689	-0.224811	-0.27394	1.18072	1.75082	0.0248103	-0.265813	-0.343789	1.48848	1.73928
1.14	-0.121541	0.0337006	-0.00574907	-0.326028	0.725696	-0.605468	1.25702	-0.130445	0.0140198	1.81534	0.611086	-0.182652	-0.0157989	1.26866	-0.113446	-0.0472568	1.7996	0.636417	-0.0539388	0.00119024	-0.544752	-0.0936906	-0.00440594	0.0487523	-0.24316	-0.254845	1.17649	1.75181	0.0861828	-0.291657	-0.307644	1.48243	1.74816
1.15	-0.127449	0.0326167	-0.010772	-0.322773	0.710982	-0.605965	1.28496	-0.125731	0.0221424	1.8562	0.628756	-0.178259	-0.0157869	1.29733	-0.110647	-0.0378522	1.8415	0.652707	-0.0609924	0.00118367	-0.552213	-0.0920285	0.00210767	0.116935	-0.260398	-0.234892	1.17433	1.75614	0.14382	-0.314199	-0.273995	1.47753	1.7541
1.16	-0.133338	0.0311225	-0.015174	-0.319394	0.697419	-0.606605	1.31061	-0.122552	0.0286167	1.89353	0.645554	-0.171489	-0.015775	1.32423	-0.107854	-0.0290126	1.88007	0.667078	-0.0682685	0.00117711	-0.558244	-0.0893406	0.00715827	0.183399	-0.276024	-0.21457	1.17401	1.76386	0.196945	-0.33297	-0.243789	1.4737	1.75729
1.17	-0.138873	0.0293632	-0.0190604	-0.315891	0.68502	-0.607362	1.33411	-0.120893	0.0336931	1.92784	0.660486	-0.163202	-0.015763	1.34913	-0.105022	-0.0207361	1.91563	0.679423	-0.0758267	0.00117055	-0.563338	-0.0858691	0.0110027	0.247096	-0.289548	-0.194627	1.17567	1.77408	0.244988	-0.347642	-0.217762	1.47105	1.7584
1.18	-0.143772	0.0274489	-0.0225801	-0.312317	0.673809	-0.608191	1.3555	-0.120614	0.0376811	1.95949	0.672659	-0.1543	-0.0157511	1.37157	-0.102089	-0.0130683	1.94828	0.689815	-0.0835792	0.001164	-0.568109	-0.0819657	0.0139878	0.306936	-0.300571	-0.175915	1.17963	1.78535	0.287638	-0.358043	-0.196333	1.46967	1.75835
1.19	-0.147778	0.0255294	-0.02587	-0.308726	0.663816	-0.609064	1.37469	-0.12146	0.0408581	1.98858	0.68152	-0.145585	-0.0157391	1.39109	-0.0990288	-0.00602882	1.97793	0.698517	-0.091278	0.00115746	-0.573107	-0.0779666	0.0165093	0.36193	-0.308852	-0.159243	1.1862	1.79618	0.324888	-0.364171	-0.17951	1.46951	1.75798
1.2	-0.150775	0.0237212	-0.0290462	-0.30516	0.655086	-0.609957	1.39152	-0.123112	0.0434206	2.01507	0.686968	-0.137673	-0.0157272	1.40728	-0.0958564	0.000412345	2.00441	0.705904	-0.0985662	0.00115093	-0.5787	-0.0741559	0.0189504	0.411308	-0.314333	-0.145256	1.19543	1.80544	0.357034	-0.366198	-0.16686	1.47016	1.75782
1.21	-0.152815	0.0220988	-0.0321852	-0.30165	0.647671	-0.610858	1.40581	-0.125226	0.045468	2.03875	0.689359	-0.130965	-0.0157152	1.41992	-0.0926338	0.0063176	2.02752	0.71235	-0.10508	0.0011444	-0.584996	-0.0707428	0.0216341	0.4546	-0.317153	-0.134326	1.20699	1.81256	0.384653	-0.364472	-0.157532	1.47091	1.75794
1.22	-0.154086	0.0206994	-0.0353167	-0.298218	0.641604	-0.611747	1.41742	-0.127478	0.0470193	2.05931	0.689435	-0.125652	-0.0157032	1.42905	-0.0894506	0.0117421	2.04706	0.718142	-0.11055	0.00113787	-0.591831	-0.0678612	0.0247787	0.491681	-0.317639	-0.12649	1.22023	1.81749	0.408542	-0.359507	-0.150361	1.47077	1.75802
1.23	-0.154841	0.0195293	-0.0384245	-0.294859	0.636896	-0.612595	1.42619	-0.129598	0.0480462	2.07641	0.688174	-0.121729	-0.0156912	1.43486	-0.0863938	0.0167041	2.06291	0.723432	-0.114862	0.00113135	-0.598834	-0.065579	0.0284666	0.522773	-0.316294	-0.121416	1.23421	1.82051	0.429627	-0.351969	-0.14402	1.46865	1.75752
1.24	-0.155351	0.0185609	-0.0414445	-0.291569	0.633556	-0.613374	1.43201	-0.131397	0.0485042	2.08973	0.686623	-0.119036	-0.0156792	1.43765	-0.083526	0.0211834	2.07499	0.728248	-0.118052	0.00112483	-0.605551	-0.0639098	0.0326421	0.548422	-0.313786	-0.118423	1.24791	1.82201	0.44888	-0.342655	-0.137188	1.4636	1.75592
1.25	-0.15586	0.0177531	-0.0442764	-0.288341	0.631583	-0.614063	1.43475	-0.132759	0.0483495	2.09901	0.685703	-0.11732	-0.0156672	1.43775	-0.0808804	0.0251463	2.08327	0.732541	-0.120262	0.00111831	-0.611562	-0.0627972	0.0371356	0.569432	-0.310925	-0.116568	1.26053	1.82245	0.467231	-0.332452	-0.128712	1.45507	1.75283
1.26	-0.156537	0.0170446	-0.046797	-0.285177	0.630959	-0.614653	1.4343	-0.133638	0.0475462	2.10406	0.686056	-0.116293	-0.0156552	1.4354	-0.0784662	0.0285716	2.08777	0.736242	-0.121676	0.00111178	-0.61654	-0.0621145	0.0417075	0.586775	-0.308636	-0.114787	1.27166	1.82224	0.485513	-0.322289	-0.11774	1.44305	1.74814
1.27	-0.157474	0.0163492	-0.0488735	-0.28208	0.631659	-0.615144	1.43063	-0.13404	0.0460696	2.10483	0.687941	-0.115699	-0.0156432	1.43083	-0.0762758	0.031464	2.08851	0.739295	-0.122482	0.00110526	-0.620282	-0.0616742	0.0460987	0.601475	-0.307914	-0.112087	1.28154	1.82182	0.50443	-0.313066	-0.103816	1.42822	1.74204
1.28	-0.15871	0.0155617	-0.0503709	-0.279056	0.633649	-0.615547	1.42383	-0.134013	0.0439102	2.10138	0.691213	-0.115364	-0.0156312	1.42419	-0.0742861	0.0338509	2.08556	0.741671	-0.122861	0.00109873	-0.622688	-0.0612544	0.0500689	0.614505	-0.309747	-0.107732	1.29112	1.82169	0.524551	-0.305589	-0.086919	1.4119	1.73505
1.29	-0.160244	0.0145728	-0.0511591	-0.276101	0.636891	-0.61587	1.41409	-0.133631	0.0410815	2.09384	0.695384	-0.115231	-0.0156191	1.4156	-0.072455	0.0357682	2.07894	0.743349	-0.122985	0.0010922	-0.623732	-0.0606348	0.0534112	0.626697	-0.315043	-0.101396	1.302	1.8223	0.546325	-0.300527	-0.0674162	1.3959	1.72787
1.3	-0.162062	0.013296	-0.0511203	-0.273209	0.64135	-0.616122	1.40172	-0.132978	0.0376284	2.08242	0.699748	-0.115367	-0.0156071	1.40518	-0.0707189	0.0372485	2.0687	0.744305	-0.123009	0.00108567	-0.623418	-0.0596346	0.0559484	0.638714	-0.324539	-0.0932222	1.31621	1.82397	0.570123	-0.298403	-0.0459443	1.3823	1.7212
1.31	-0.164148	0.0116941	-0.0501601	-0.270372	0.646996	-0.616311	1.38708	-0.132129	0.0336312	2.06736	0.703531	-0.11594	-0.0155951	1.39303	-0.0689958	0.0383191	2.05489	0.744505	-0.123044	0.00107913	-0.62176	-0.0581411	0.0575236	0.651073	-0.33874	-0.0837946	1.33583	1.82668	0.596284	-0.299597	-0.0232222	1.3731	1.71542
1.32	-0.166488	0.00979146	-0.048219	-0.26757	0.653797	-0.616449	1.37052	-0.131149	0.0291988	2.04888	0.706035	-0.117172	-0.015583	1.37925	-0.0671923	0.0390057	2.03751	0.743907	-0.12313	0.00107259	-0.618751	-0.0561263	0.0579952	0.664216	-0.357887	-0.0740089	1.36263	1.82997	0.625188	-0.304368	0.000130567	1.36997	1.71045
1.33	-0.169061	0.00767274	-0.0452805	-0.264778	0.661719	-0.616551	1.35236	-0.130091	0.0244548	2.02716	0.706741	-0.119268	-0.015571	1.36391	-0.065218	0.0393363	2.01659	0.742474	-0.123212	0.00106605	-0.614358	-0.0536453	0.0572412	0.678612	-0.381973	-0.0648927	1.39765	1.83303	0.657315	-0.312849	0.0237267	1.3739	1.70575
